<?xml version="1.0" encoding="iso-8859-1"?>
<!-- Generator: Adobe Illustrator 19.0.0, SVG Export Plug-In . SVG Version: 6.00 Build 0)  -->
<svg version="1.1" id="Layer_1" xmlns="http://www.w3.org/2000/svg" xmlns:xlink="http://www.w3.org/1999/xlink" x="0px" y="0px"
	 viewBox="0 0 512 512" style="enable-background:new 0 0 512 512;" xml:space="preserve">
<path style="fill:#E0A03D;" d="M460.091,211.694c0-112.718-91.375-204.092-204.091-204.092S51.908,98.976,51.908,211.694
	c-21.477,0-38.886,17.411-38.886,38.886s17.408,38.886,38.886,38.886l54.443,214.933h311.316l42.423-214.933
	c21.477,0,38.886-17.411,38.886-38.886S481.568,211.694,460.091,211.694z"/>
<polyline style="fill:#63A2AE;" points="165.152,289.465 460.091,289.465 417.668,504.398 106.351,504.398 51.908,289.465 
	144.879,289.465 "/>
<g>
	<path style="fill:#491E17;" d="M467.579,204.694C463.87,91.196,370.385,0,255.999,0S48.13,91.196,44.421,204.694
		c-22.086,3.591-39,22.8-39,45.885c0,23.596,17.67,43.143,40.473,46.1L100.435,512h323.482l42.508-215.362
		c22.648-3.1,40.155-22.574,40.155-46.059C506.579,227.494,489.665,208.286,467.579,204.694z M460.091,281.863h-6.249h-288.69
		v15.204h285.69L411.42,496.796h-48.582l23.525-132.022l-14.969-2.667l-24,134.688h-83.793V322.897h-15.204v173.898h-83.793
		l-23.999-134.688l-14.969,2.667l23.525,132.023h-36.894L61.676,297.067h83.202v-15.204H57.825h-5.916
		c-17.25,0-31.284-14.034-31.284-31.284c0-17.25,14.034-31.284,31.284-31.284h7.602h155.482v-15.204H59.671
		C63.682,99.258,150.203,15.204,255.999,15.204s192.318,84.054,196.328,188.888H393.16v15.204h59.329h7.602
		c17.25,0,31.284,14.034,31.284,31.284C491.375,267.829,477.341,281.863,460.091,281.863z"/>
	<path style="fill:#491E17;" d="M435.026,183.056c-6.709-42.092-28.315-80.704-60.839-108.726
		c-32.876-28.323-74.849-43.922-118.187-43.922v15.204c39.697,0,78.145,14.291,108.263,40.237
		c29.806,25.679,49.604,61.051,55.748,99.601L435.026,183.056z"/>
</g>
<g>
</g>
<g>
</g>
<g>
</g>
<g>
</g>
<g>
</g>
<g>
</g>
<g>
</g>
<g>
</g>
<g>
</g>
<g>
</g>
<g>
</g>
<g>
</g>
<g>
</g>
<g>
</g>
<g>
</g>
</svg>
