<?xml version="1.0" encoding="iso-8859-1"?>
<!-- Generator: Adobe Illustrator 19.0.0, SVG Export Plug-In . SVG Version: 6.00 Build 0)  -->
<svg version="1.1" id="Layer_1" xmlns="http://www.w3.org/2000/svg" xmlns:xlink="http://www.w3.org/1999/xlink" x="0px" y="0px"
	 viewBox="0 0 511.998 511.998" style="enable-background:new 0 0 511.998 511.998;" xml:space="preserve">
<path style="fill:#DFDBB2;" d="M155.658,461.9h-39.412c-11.663,0-21.118,9.455-21.118,21.118c0,11.663,9.455,21.118,21.118,21.118
	h279.507c11.663,0,21.118-9.455,21.118-21.118c0-11.663-9.455-21.118-21.118-21.118h-39.412
	c51.498-22.77,93.803-62.526,119.816-112.164H35.843C61.856,399.374,104.16,439.131,155.658,461.9z"/>
<path style="fill:#249189;" d="M7.604,234.624c0,41.546,10.206,80.702,28.239,115.112h440.314
	c18.032-34.41,28.239-73.567,28.239-115.112v-15.082H7.604V234.624z"/>
<rect x="7.604" y="173.407" style="fill:#DFDBB2;" width="496.796" height="46.134"/>
<g>
	
		<rect x="92.103" y="265.465" transform="matrix(-0.7071 -0.7071 0.7071 -0.7071 -11.3098 564.592)" style="fill:#F4521F;" width="38.346" height="38.346"/>
	
		<rect x="188.585" y="265.463" transform="matrix(-0.7071 -0.7071 0.7071 -0.7071 153.3981 632.8116)" style="fill:#F4521F;" width="38.346" height="38.346"/>
	
		<rect x="285.078" y="265.468" transform="matrix(-0.7071 -0.7071 0.7071 -0.7071 318.1183 701.0504)" style="fill:#F4521F;" width="38.346" height="38.346"/>
	
		<rect x="381.561" y="265.462" transform="matrix(-0.7071 -0.7071 0.7071 -0.7071 482.8282 769.2648)" style="fill:#F4521F;" width="38.346" height="38.346"/>
</g>
<g>
	<path style="fill:#7A1B2E;" d="M0,165.804v46.134v15.208v7.478c0,37.117,8.142,74.026,23.627,107.509h-0.354l5.835,11.133
		l2.135,4.075h0.05c21.913,40.023,54.32,73.585,93.237,96.955h-8.283c-15.837,0-28.722,12.885-28.722,28.723
		c0,15.837,12.885,28.722,28.722,28.722h279.507c15.837,0,28.722-12.885,28.722-28.722c0-15.838-12.885-28.723-28.722-28.723h-8.284
		c38.919-23.37,71.324-56.933,93.238-96.955h0.049l2.089-3.986c0.015-0.029,0.031-0.058,0.047-0.087l5.834-11.133h-0.353
		c15.485-33.481,23.627-70.392,23.627-107.509v-7.478V211.94v-46.134H0V165.804z M354.697,454.296H217.894v15.208H320.34h36.002
		h39.412c7.453,0,13.515,6.063,13.515,13.516c0,7.452-6.062,13.515-13.515,13.515H116.246c-7.452,0-13.515-6.063-13.515-13.515
		c0-7.453,6.063-13.516,13.515-13.516h39.413h36.001h5.957v-15.208h-40.315c-45.148-20.32-83.241-54.433-108.505-96.955h414.405
		C437.938,399.864,399.844,433.977,354.697,454.296z M496.792,234.624c0,37.295-8.73,74.364-25.285,107.509H40.493
		c-16.554-33.146-25.285-70.214-25.285-107.509v-7.478h182.409h299.175v7.478H496.792z M197.616,211.939H15.208v-30.926h481.585
		v30.926H197.616z"/>
	<path style="fill:#7A1B2E;" d="M81.449,142.993h15.208c0-4.71,1.379-6.653,3.664-9.869c2.732-3.847,6.474-9.115,6.474-18.676
		s-3.741-14.83-6.473-18.676c-2.285-3.217-3.665-5.158-3.665-9.87c0-4.71,1.379-6.653,3.664-9.87
		c2.732-3.847,6.474-9.113,6.474-18.676c0-9.564-3.741-14.832-6.473-18.678c-2.285-3.218-3.665-5.16-3.665-9.872
		s1.379-6.654,3.665-9.872c2.732-3.847,6.473-9.115,6.473-18.678H91.587c0,4.712-1.38,6.654-3.665,9.872
		c-2.732,3.847-6.473,9.115-6.473,18.677c0,9.564,3.741,14.832,6.473,18.678c2.285,3.218,3.665,5.16,3.665,9.872
		c0,4.71-1.379,6.653-3.664,9.869c-2.732,3.847-6.474,9.115-6.474,18.676c0,9.563,3.742,14.831,6.474,18.677
		c2.285,3.217,3.664,5.158,3.664,9.87c0,4.711-1.379,6.653-3.664,9.87C85.191,128.163,81.449,133.43,81.449,142.993z"/>
	<path style="fill:#7A1B2E;" d="M135.409,142.993h15.208c0-4.71,1.379-6.653,3.664-9.869c2.732-3.847,6.474-9.115,6.474-18.676
		s-3.741-14.83-6.473-18.676c-2.285-3.217-3.665-5.158-3.665-9.87c0-4.71,1.379-6.653,3.664-9.87
		c2.732-3.847,6.474-9.113,6.474-18.676c0-9.564-3.741-14.832-6.473-18.678c-2.285-3.218-3.665-5.16-3.665-9.872
		s1.379-6.654,3.665-9.872c2.732-3.847,6.473-9.115,6.473-18.678h-15.208c0,4.712-1.38,6.654-3.665,9.872
		c-2.732,3.847-6.473,9.115-6.473,18.677c0,9.564,3.741,14.832,6.473,18.678c2.285,3.218,3.665,5.16,3.665,9.872
		c0,4.71-1.379,6.653-3.664,9.869c-2.732,3.847-6.474,9.115-6.474,18.676c0,9.563,3.742,14.831,6.474,18.677
		c2.285,3.217,3.664,5.158,3.664,9.87c0,4.711-1.379,6.653-3.664,9.87C139.151,128.163,135.409,133.43,135.409,142.993z"/>
	<path style="fill:#7A1B2E;" d="M189.368,142.993h15.208c0-4.71,1.379-6.653,3.664-9.869c2.732-3.847,6.474-9.115,6.474-18.676
		s-3.741-14.83-6.473-18.676c-2.285-3.217-3.665-5.158-3.665-9.87c0-4.71,1.379-6.653,3.664-9.87
		c2.732-3.847,6.474-9.113,6.474-18.676c0-9.564-3.741-14.832-6.473-18.678c-2.285-3.218-3.665-5.16-3.665-9.872
		s1.379-6.654,3.665-9.872c2.732-3.847,6.473-9.115,6.473-18.678h-15.208c0,4.712-1.38,6.654-3.665,9.872
		c-2.732,3.847-6.473,9.115-6.473,18.677c0,9.564,3.741,14.832,6.473,18.678c2.285,3.218,3.665,5.16,3.665,9.872
		c0,4.71-1.379,6.653-3.664,9.869c-2.732,3.847-6.474,9.115-6.474,18.676c0,9.563,3.742,14.831,6.474,18.677
		c2.285,3.217,3.664,5.158,3.664,9.87c0,4.711-1.379,6.653-3.664,9.87C193.11,128.163,189.368,133.43,189.368,142.993z"/>
	<path style="fill:#7A1B2E;" d="M243.327,142.993h15.208c0-4.71,1.379-6.653,3.664-9.869c2.732-3.847,6.474-9.115,6.474-18.676
		s-3.741-14.83-6.474-18.676c-2.285-3.217-3.664-5.158-3.664-9.87c0-4.71,1.379-6.653,3.664-9.87
		c2.732-3.847,6.474-9.113,6.474-18.676c0-9.564-3.741-14.832-6.474-18.678c-2.285-3.218-3.664-5.16-3.664-9.872
		s1.379-6.654,3.664-9.872c2.732-3.847,6.474-9.115,6.474-18.678h-15.208c0,4.712-1.38,6.654-3.665,9.872
		c-2.732,3.847-6.473,9.115-6.473,18.677c0,9.564,3.741,14.832,6.473,18.678c2.285,3.218,3.665,5.16,3.665,9.872
		c0,4.71-1.379,6.653-3.664,9.869c-2.732,3.847-6.474,9.115-6.474,18.676c0,9.563,3.742,14.831,6.474,18.677
		c2.285,3.217,3.664,5.158,3.664,9.87c0,4.711-1.379,6.653-3.664,9.87C247.069,128.163,243.327,133.43,243.327,142.993z"/>
	<path style="fill:#7A1B2E;" d="M297.287,142.993h15.208c0-4.71,1.379-6.653,3.664-9.869c2.732-3.847,6.474-9.115,6.474-18.676
		s-3.741-14.83-6.474-18.676c-2.285-3.217-3.664-5.158-3.664-9.87c0-4.71,1.379-6.653,3.664-9.87
		c2.732-3.847,6.474-9.113,6.474-18.676c0-9.564-3.741-14.832-6.474-18.678c-2.285-3.218-3.664-5.16-3.664-9.872
		s1.379-6.654,3.664-9.872c2.732-3.847,6.474-9.115,6.474-18.678h-15.208c0,4.712-1.379,6.654-3.665,9.872
		c-2.731,3.847-6.473,9.115-6.473,18.677c0,9.564,3.741,14.832,6.474,18.678c2.285,3.218,3.664,5.16,3.664,9.872
		c0,4.71-1.379,6.653-3.664,9.869c-2.732,3.847-6.474,9.115-6.474,18.676c0,9.563,3.741,14.831,6.474,18.677
		c2.285,3.217,3.664,5.158,3.664,9.87c0,4.711-1.379,6.653-3.664,9.87C301.028,128.163,297.287,133.43,297.287,142.993z"/>
	<path style="fill:#7A1B2E;" d="M351.245,142.993h15.208c0-4.71,1.379-6.653,3.664-9.869c2.732-3.847,6.474-9.115,6.474-18.676
		s-3.741-14.83-6.474-18.676c-2.285-3.217-3.664-5.158-3.664-9.87c0-4.71,1.379-6.653,3.664-9.87
		c2.732-3.847,6.474-9.113,6.474-18.676c0-9.564-3.741-14.832-6.474-18.678c-2.285-3.218-3.664-5.16-3.664-9.872
		s1.379-6.654,3.664-9.872c2.732-3.847,6.474-9.115,6.474-18.678h-15.208c0,4.712-1.379,6.654-3.665,9.872
		c-2.731,3.847-6.473,9.115-6.473,18.677c0,9.564,3.741,14.832,6.474,18.678c2.285,3.218,3.664,5.16,3.664,9.872
		c0,4.71-1.379,6.653-3.664,9.869c-2.732,3.847-6.474,9.115-6.474,18.676c0,9.563,3.741,14.831,6.474,18.677
		c2.285,3.217,3.664,5.158,3.664,9.87c0,4.711-1.379,6.653-3.664,9.87C354.987,128.163,351.245,133.43,351.245,142.993z"/>
	<path style="fill:#7A1B2E;" d="M405.205,142.993h15.208c0-4.71,1.379-6.653,3.664-9.869c2.732-3.847,6.474-9.115,6.474-18.676
		s-3.741-14.83-6.474-18.676c-2.285-3.217-3.664-5.158-3.664-9.87c0-4.71,1.379-6.653,3.664-9.87
		c2.732-3.847,6.474-9.113,6.474-18.676c0-9.564-3.741-14.832-6.474-18.678c-2.285-3.218-3.664-5.16-3.664-9.872
		s1.379-6.654,3.664-9.872c2.732-3.847,6.474-9.115,6.474-18.678h-15.208c0,4.712-1.379,6.654-3.665,9.872
		c-2.731,3.847-6.473,9.115-6.473,18.677c0,9.564,3.741,14.832,6.474,18.678c2.285,3.218,3.664,5.16,3.664,9.872
		c0,4.71-1.379,6.653-3.664,9.869c-2.732,3.847-6.474,9.115-6.474,18.676c0,9.563,3.741,14.831,6.474,18.677
		c2.285,3.217,3.664,5.158,3.664,9.87c0,4.711-1.379,6.653-3.664,9.87C408.946,128.163,405.205,133.43,405.205,142.993z"/>
	<path style="fill:#7A1B2E;" d="M73.399,284.64l37.868,37.868l37.868-37.868l-37.868-37.868L73.399,284.64z M111.268,301.001
		L94.906,284.64l16.361-16.361l16.362,16.361L111.268,301.001z"/>
	<path style="fill:#7A1B2E;" d="M207.756,322.508l37.868-37.868l-37.868-37.868l-37.868,37.868L207.756,322.508z M224.117,284.64
		l-16.361,16.362l-16.362-16.362l16.362-16.361L224.117,284.64z"/>
	<path style="fill:#7A1B2E;" d="M342.112,284.64l-37.869-37.868l-37.868,37.868l37.868,37.868L342.112,284.64z M304.244,268.278
		l16.363,16.361l-16.363,16.362l-16.362-16.362L304.244,268.278z"/>
	<path style="fill:#7A1B2E;" d="M438.6,284.64l-37.869-37.868l-37.868,37.868l37.868,37.868L438.6,284.64z M400.732,268.278
		l16.363,16.361l-16.363,16.362l-16.362-16.362L400.732,268.278z"/>
</g>
<g>
	<path style="fill:#FFFFFF;" d="M347.117,441.037l-6.15-13.909c27.491-12.155,51.596-29.666,71.644-52.049l11.329,10.147
		C402.439,409.227,376.593,428.004,347.117,441.037z"/>
	<rect x="99.195" y="372.548" style="fill:#FFFFFF;" width="169.394" height="15.208"/>
</g>
<g>
</g>
<g>
</g>
<g>
</g>
<g>
</g>
<g>
</g>
<g>
</g>
<g>
</g>
<g>
</g>
<g>
</g>
<g>
</g>
<g>
</g>
<g>
</g>
<g>
</g>
<g>
</g>
<g>
</g>
</svg>
